<?xml version="1.0" standalone="no"?><!DOCTYPE svg PUBLIC "-//W3C//DTD SVG 1.1//EN" "http://www.w3.org/Graphics/SVG/1.1/DTD/svg11.dtd"><svg class="icon" height="512" viewBox="0 0 1024 1024" version="1.1" xmlns="http://www.w3.org/2000/svg"><path d="M711.36 500.288c42.112-46.528 68.48-107.584 68.48-175.232 0-145.024-117.888-262.528-263.296-262.528-145.408 0-263.296 117.504-263.296 262.528 0 66.24 25.408 125.952 65.984 172.16C156.032 570.112 51.2 726.016 51.2 901.248c0 12.736 0.576 25.472 1.6 38.016 1.024 11.776 10.88 20.608 22.464 20.608 0.576 0 1.28-0.064 1.92-0.064 12.416-1.088 21.568-12.032 20.544-24.384-1.024-11.264-1.472-22.72-1.472-34.176 0-163.392 101.184-308.992 257.856-371.008l0 0c44.864 35.392 100.8 57.344 162.432 57.344 60.096 0 114.88-20.864 159.168-54.656 153.088 63.424 251.968 207.36 251.968 368.32 0 11.904-0.448 23.872-1.536 35.648-1.088 12.352 8 23.296 20.416 24.448 0.704 0.064 1.408 0.128 2.048 0.128 11.52 0 21.312-8.832 22.336-20.544 1.216-13.056 1.792-26.304 1.792-39.68C972.736 728.704 870.528 574.4 711.36 500.288zM298.304 325.056c0.064-119.936 97.92-217.472 218.24-217.472s218.24 97.536 218.24 217.472c0 119.936-97.92 217.472-218.24 217.472S298.304 444.992 298.304 325.056z" /></svg>